<svg width="163" height="72.1" viewBox="0 0 163 72.1" xmlns="http://www.w3.org/2000/svg"><g id="svgGroup" stroke-linecap="round" fill-rule="evenodd" font-size="9pt" stroke="#000" stroke-width="0.25mm" fill="#000" style="stroke:#000;stroke-width:0.25mm;fill:#000"><path d="M 21.8 72.1 L 21.4 72 Q 17 70.2 14.6 66.65 Q 12.2 63.1 12.2 58.3 Q 9.3 57.3 6.5 55.5 Q 3.7 53.7 1.85 51.1 Q 0 48.5 0 45.1 Q 0 40.9 2.6 37.35 Q 5.2 33.8 8.85 31.05 Q 12.5 28.3 15.8 26.5 Q 20.9 23.8 26.7 22.15 Q 32.5 20.5 38.3 19.8 Q 36.2 18.6 34.6 16.65 Q 33 14.7 33 12.2 Q 33 9.6 34.55 7.5 Q 36.1 5.4 38.35 3.8 Q 40.6 2.2 42.8 1.4 Q 44.4 0.9 46.05 0.55 Q 47.7 0.2 49.3 0.1 Q 49.8 0 50.1 0 L 50.8 0 Q 52 0 53.85 0.25 Q 55.7 0.5 57.45 1 Q 59.2 1.5 60.1 2.4 Q 60.7 3 60.7 3.6 Q 60.7 4.7 59.35 5.2 Q 58 5.7 57.1 5.7 Q 56.9 5.7 56.3 5.6 Q 55.7 5.5 55.7 5.1 Q 55.7 4.6 56.45 4.65 Q 57.2 4.7 57.9 4.6 Q 58.6 4.5 58.6 3.8 Q 58.6 3.7 58.4 3.5 Q 57.2 2.3 55.4 1.95 Q 53.6 1.6 51.9 1.6 L 50.6 1.6 Q 50 1.6 49.4 1.7 Q 46.7 1.9 43.7 3.2 Q 40.7 4.5 38.6 6.8 Q 36.5 9.1 36.5 12.3 Q 36.5 14.8 38 16.55 Q 39.5 18.3 41.5 19.4 Q 45.6 19.1 49.6 19.1 Q 50.9 19.1 52.7 19.2 Q 54.5 19.3 55.9 19.65 Q 57.3 20 57.3 20.7 Q 57.3 21.6 56.2 22 Q 55.1 22.4 53.8 22.55 Q 52.5 22.7 51.9 22.7 Q 46.7 22.7 41.9 21.3 Q 35.9 22.1 29.5 24.1 Q 23.1 26.1 17.8 29.2 Q 14.8 30.9 11.6 33.55 Q 8.4 36.2 6.2 39.6 Q 4 43 4 46.8 Q 4 50.7 6.45 53.2 Q 8.9 55.7 12.3 57 Q 12.6 53.2 14.1 50.1 Q 16.5 45 20.5 41.15 Q 24.5 37.3 29.5 34.45 Q 34.5 31.6 39.9 29.65 Q 45.3 27.7 50.4 26.5 Q 52.9 25.9 55.45 25.55 Q 58 25.2 60.5 25.2 Q 63.7 25.2 66.95 26.05 Q 70.2 26.9 72.4 29.05 Q 74.6 31.2 74.6 35 L 74.6 36 Q 74.1 40.2 71.35 43.75 Q 68.6 47.3 64.85 49.9 Q 61.1 52.5 57.5 54.2 Q 55 55.4 52.3 56.3 Q 49.6 57.2 46.8 57.9 Q 37 60.5 27 60.5 Q 23.8 60.5 20.55 60.15 Q 17.3 59.8 14.1 58.9 Q 14.3 65.5 19.6 69 Q 20.2 69.4 20.85 69.7 Q 21.5 70 22.1 70.3 Q 22.7 70.7 22.7 71.1 Q 22.7 72.1 21.8 72.1 Z M 144.4 71.5 Q 142.5 71.5 140.95 70.55 Q 139.4 69.6 139.4 67.5 Q 139.4 65.1 141.25 62.9 Q 143.1 60.7 144.8 59.2 Q 147.3 57.1 150.7 54.6 Q 154.1 52.1 157.2 51.4 Q 157.1 47 155.3 42.7 Q 153.7 44.9 151.95 47.05 Q 150.2 49.2 148.1 51.1 Q 147.2 51.9 145.25 53.2 Q 143.3 54.5 142.1 54.5 Q 141.1 54.5 141.1 53.3 Q 141.1 52.3 141.6 51.1 Q 142.5 48.8 143.4 46.45 Q 144.3 44.1 145.2 41.9 Q 146 40.1 146.85 37.8 Q 147.7 35.5 147.7 33.6 Q 147.7 33.3 147.6 32.75 Q 147.5 32.2 147 32.2 Q 146.4 32.2 145.55 32.9 Q 144.7 33.6 144.2 33.6 Q 143.9 33.6 143.9 33.4 Q 143.9 32.8 144.8 32.25 Q 145.7 31.7 146.8 31.35 Q 147.9 31 148.4 31 Q 149.8 31 150.5 31.85 Q 151.2 32.7 151.2 34.1 Q 151.2 35.8 150 38.6 Q 148.8 41.4 147.2 44.35 Q 145.6 47.3 144.4 49.45 Q 143.2 51.6 143.2 52.1 Q 143.2 52.4 143.4 52.4 Q 144 52.4 145.4 51.5 Q 146.8 50.6 147.3 50.2 Q 151.7 46.4 155 41.6 Q 154.8 41.2 154.25 40.2 Q 153.7 39.2 153.7 38.8 Q 153.7 38.2 154.7 37.5 Q 155.7 36.8 156.85 36.35 Q 158 35.9 158.4 35.9 Q 159.1 35.9 159.1 36.5 Q 159.1 37.4 157.9 39.1 Q 156.7 40.8 156.2 41.6 Q 157.3 43.8 158.1 46.2 Q 158.9 48.6 159.3 51.1 Q 160 51.1 161.5 51.7 Q 163 52.3 163 53.1 Q 163 53.4 162.6 53.4 Q 162.3 53.4 161.6 52.8 Q 160.9 52.2 159.5 52.3 Q 159.6 53.1 159.65 53.9 Q 159.7 54.7 159.7 55.6 Q 159.7 59.3 158.4 62.35 Q 157.1 65.4 154.1 67.7 Q 152.2 69.2 149.6 70.35 Q 147 71.5 144.4 71.5 Z M 23.7 58.7 Q 29 58.7 34.35 57.8 Q 39.7 56.9 44.8 55.6 Q 47.4 54.9 49.85 54 Q 52.3 53.1 54.7 52.1 Q 57.9 50.6 61.55 48.2 Q 65.2 45.8 68.1 42.65 Q 71 39.5 71.8 35.8 Q 71.9 35.4 71.95 35 Q 72 34.6 72 34.2 Q 72 31.2 70.2 29.65 Q 68.4 28.1 65.8 27.5 Q 63.2 26.9 60.8 26.9 Q 58.3 26.9 55.8 27.3 Q 53.3 27.7 50.8 28.3 Q 46.1 29.4 40.85 31.3 Q 35.6 33.2 30.7 35.95 Q 25.8 38.7 21.85 42.4 Q 17.9 46.1 15.8 50.9 Q 15.1 52.4 14.65 54.1 Q 14.2 55.8 14.1 57.5 Q 16.4 58.2 18.85 58.45 Q 21.3 58.7 23.7 58.7 Z M 76.1 54.6 Q 75.4 54.6 74.9 53.95 Q 74.4 53.3 74.4 52.7 Q 74.4 52.3 74.6 51.7 Q 75.5 49.9 76.1 47.3 Q 76.7 44.7 77 42 Q 77.3 39.3 77.3 37.4 Q 77.3 35.5 76.95 33.25 Q 76.6 31 75 29.8 Q 74.6 29.6 74.6 29.4 Q 74.6 29.2 74.8 29.2 Q 75.1 29.2 75.3 29.4 Q 77.1 30.3 78.05 32.4 Q 79 34.5 79.4 36.85 Q 79.8 39.2 79.8 41.1 Q 79.8 43 79.45 45.25 Q 79.1 47.5 78.2 49.3 Q 81 47.4 83.25 44.55 Q 85.5 41.7 87.3 38.9 Q 87.8 38.1 88.8 37.15 Q 89.8 36.2 90.8 36.2 Q 91.5 36.2 91.5 37.1 Q 91.5 37.6 91.3 38 Q 90.1 42 90.1 46.7 Q 90.1 47.6 90.25 48.9 Q 90.4 50.2 90.95 51.2 Q 91.5 52.2 92.8 52.2 Q 93.5 52.2 94.3 51.85 Q 95.1 51.5 95.5 50.9 Q 95.7 50.7 95.9 50.7 Q 96 50.7 96 50.9 Q 96 51.9 94.6 52.4 Q 93.2 52.9 92.4 52.9 Q 89.8 52.9 88.4 50.5 Q 87 48.1 87 45.8 Q 87 44.9 87.25 44 Q 87.5 43.1 87.5 42.2 Q 87.5 42 87.45 41.6 Q 87.4 41.2 87.1 41.2 Q 86.9 41.2 85.6 42.7 Q 84.3 44.2 82.6 46.3 Q 80.9 48.4 79.55 50.2 Q 78.2 52 77.9 52.5 L 77.3 53.9 Q 77 54.6 76.1 54.6 Z M 97.7 35.4 L 97.7 34.3 Q 97.7 31.7 99.4 31.05 Q 101.1 30.4 103.2 30.1 Q 104.3 27.5 105.5 24.95 Q 106.7 22.4 108.3 20.2 Q 109 18.9 110.6 18.9 Q 111.6 18.9 111.6 19.6 Q 111.6 20.1 111.3 20.6 L 110.7 21.6 Q 109.4 23.5 108.1 25.55 Q 106.8 27.6 105.7 29.7 Q 107.5 29.4 109.4 29.1 Q 111.3 28.8 113.2 28.8 Q 113.5 28.8 114.6 28.9 Q 115.7 29 115.7 29.4 Q 115.7 29.7 115.2 29.75 Q 114.7 29.8 114.5 29.8 Q 112 30.2 109.55 30.6 Q 107.1 31 104.6 31.6 Q 103.9 32.9 102.9 35.2 Q 101.9 37.5 101.05 39.85 Q 100.2 42.2 100 43.7 L 100 45.4 Q 100 48.5 100.55 51.3 Q 101.1 54.1 102.7 56.7 Q 102.7 56.8 102.75 56.85 Q 102.8 56.9 102.8 57 Q 102.8 57.4 102.45 57.65 Q 102.1 57.9 101.7 57.9 Q 101.1 57.9 100.6 57.4 Q 99.3 55.7 98.75 53.7 Q 98.2 51.7 98.2 49.6 Q 98.2 48.6 98.35 47.6 Q 98.5 46.6 98.5 45.9 Q 98.5 45.1 98.45 44.25 Q 98.4 43.4 98.3 42.6 Q 98.2 40.8 98.05 39 Q 97.9 37.2 97.7 35.4 Z M 126.5 35.4 L 126.5 34.3 Q 126.5 31.7 128.2 31.05 Q 129.9 30.4 132 30.1 Q 133.1 27.5 134.3 24.95 Q 135.5 22.4 137.1 20.2 Q 137.8 18.9 139.4 18.9 Q 140.4 18.9 140.4 19.6 Q 140.4 20.1 140.1 20.6 L 139.5 21.6 Q 138.2 23.5 136.9 25.55 Q 135.6 27.6 134.5 29.7 Q 136.3 29.4 138.2 29.1 Q 140.1 28.8 142 28.8 Q 142.3 28.8 143.4 28.9 Q 144.5 29 144.5 29.4 Q 144.5 29.7 144 29.75 Q 143.5 29.8 143.3 29.8 Q 140.8 30.2 138.35 30.6 Q 135.9 31 133.4 31.6 Q 132.7 32.9 131.7 35.2 Q 130.7 37.5 129.85 39.85 Q 129 42.2 128.8 43.7 L 128.8 45.4 Q 128.8 48.5 129.35 51.3 Q 129.9 54.1 131.5 56.7 Q 131.5 56.8 131.55 56.85 Q 131.6 56.9 131.6 57 Q 131.6 57.4 131.25 57.65 Q 130.9 57.9 130.5 57.9 Q 129.9 57.9 129.4 57.4 Q 128.1 55.7 127.55 53.7 Q 127 51.7 127 49.6 Q 127 48.6 127.15 47.6 Q 127.3 46.6 127.3 45.9 Q 127.3 45.1 127.25 44.25 Q 127.2 43.4 127.1 42.6 Q 127 40.8 126.85 39 Q 126.7 37.2 126.5 35.4 Z M 114.6 35.4 L 114.5 35.8 Q 114.3 38 114 40.3 Q 113.7 42.6 113.7 44.9 Q 113.7 46 113.8 47.8 Q 113.9 49.6 114.35 51.25 Q 114.8 52.9 115.6 53.8 Q 115.8 54.2 116.2 54.2 Q 117.1 54.2 118.25 52.9 Q 119.4 51.6 119.9 51 Q 121.9 48.6 122.95 46.5 Q 124 44.4 125 41.6 Q 125 41.1 125.5 41.1 Q 125.8 41.1 125.8 41.6 Q 125.8 41.7 125.75 41.75 Q 125.7 41.8 125.7 42 Q 124 47.9 120.1 52.6 Q 119.4 53.5 118.3 54.65 Q 117.2 55.8 115.9 55.8 Q 114.2 55.8 113.15 54.15 Q 112.1 52.5 111.6 50.15 Q 111.1 47.8 110.95 45.6 Q 110.8 43.4 110.8 42.2 Q 110.8 40.9 110.85 39.65 Q 110.9 38.4 111.2 37.2 Q 111.4 36.4 112.05 35.4 Q 112.7 34.4 113.7 34.4 Q 114.6 34.4 114.6 35.4 Z M 144.7 70.7 Q 146.8 70.7 148.7 69.35 Q 150.6 68 151.9 66.6 Q 154.6 63.7 155.9 60.15 Q 157.2 56.6 157.3 52.7 Q 155.4 53.3 152.7 54.8 Q 150 56.3 147.4 58.4 Q 144.8 60.5 143.05 62.85 Q 141.3 65.2 141.3 67.4 Q 141.3 68.9 142.25 69.8 Q 143.2 70.7 144.7 70.7 Z M 99.4 41 Q 100 38.7 100.8 36.55 Q 101.6 34.4 102.4 32.2 Q 100.9 32.5 100.3 32.6 Q 99.7 32.7 99.3 34.5 Q 99.2 34.9 99.2 35.35 L 99.2 36.2 Q 99.2 37.4 99.25 38.6 Q 99.3 39.8 99.4 41 Z M 128.2 41 Q 128.8 38.7 129.6 36.55 Q 130.4 34.4 131.2 32.2 Q 129.7 32.5 129.1 32.6 Q 128.5 32.7 128.1 34.5 Q 128 34.9 128 35.35 L 128 36.2 Q 128 37.4 128.05 38.6 Q 128.1 39.8 128.2 41 Z M 113.5 25.2 Q 113.1 25.2 112.6 25 Q 112.1 24.8 112.1 24.3 Q 112.1 23.2 113.5 22.5 Q 114.9 21.8 115.7 21.8 Q 116.2 21.8 116.65 22 Q 117.1 22.2 117.1 22.7 Q 117.1 23.8 115.7 24.5 Q 114.3 25.2 113.5 25.2 Z M 155.7 40.6 Q 156.2 39.8 156.65 38.9 Q 157.1 38 157.5 37.1 Q 156.7 37.5 156.05 37.95 Q 155.4 38.4 154.6 38.9 Q 155 39.3 155.2 39.7 Q 155.4 40.1 155.7 40.6 Z" vector-effect="non-scaling-stroke"/></g></svg>